<?xml version="1.0" encoding="UTF-8" standalone="no"?>
<!DOCTYPE svg PUBLIC "-//W3C//DTD SVG 20010904//EN"
"http://www.w3.org/TR/2001/REC-SVG-20010904/DTD/svg10.dtd">
<!-- Created with Sodipodi ("http://www.sodipodi.com/") -->
<svg
   width="48pt"
   height="48pt"
   viewBox="0 0 256 256"
   style="overflow:visible;enable-background:new 0 0 256 256"
   xml:space="preserve"
   xmlns="http://www.w3.org/2000/svg"
   xmlns:xap="http://ns.adobe.com/xap/1.0/"
   xmlns:xapGImg="http://ns.adobe.com/xap/1.0/g/img/"
   xmlns:rdf="http://www.w3.org/1999/02/22-rdf-syntax-ns#"
   xmlns:xml="http://www.w3.org/XML/1998/namespace"
   xmlns:xapMM="http://ns.adobe.com/xap/1.0/mm/"
   xmlns:pdf="http://ns.adobe.com/pdf/1.3/"
   xmlns:dc="http://purl.org/dc/elements/1.1/"
   xmlns:a="http://ns.adobe.com/AdobeSVGViewerExtensions/3.0/"
   xmlns:x="adobe:ns:meta/"
   xmlns:sodipodi="http://sodipodi.sourceforge.net/DTD/sodipodi-0.dtd"
   xmlns:xlink="http://www.w3.org/1999/xlink"
   id="svg617"
   sodipodi:version="0.32"
>
  <g
     id="Layer_1">
    <rect
       id="_x3C_Slice_x3E_"
       style="fill:none;"
       width="256"
       height="256" />
    <path
       style="opacity:0.2;"
       d="M239.918,118.73c-0.001,0.001-1.773,2.879-1.773,2.879c-1.861,3.023-18.787,30.315-39.705,57.427     c-29.781,38.601-51.503,56.577-68.363,56.577l0,0c-16.859,0-38.582-17.977-68.362-56.577     c-20.96-27.165-37.851-54.41-39.707-57.427l-1.774-2.881c-1.58-2.565-1.648-5.794-0.177-8.425     c1.469-2.63,4.255-4.264,7.267-4.264c0,0,42.486,0,48.73,0c0-6.507,0-69.324,0-69.324c0-4.591,3.734-8.325,8.325-8.325     l91.397-0.001c4.59,0,8.324,3.735,8.324,8.325c0,0,0,62.817,0,69.325c6.244,0,48.73,0,48.73,0c3.014,0,5.799,1.635,7.268,4.266     C241.567,112.933,241.5,116.162,239.918,118.73z"
       id="path621" />
    <path
       style="opacity:0.2;"
       d="M238.918,116.73c-0.001,0.001-1.773,2.879-1.773,2.879c-1.861,3.023-18.787,30.315-39.705,57.427     c-29.781,38.601-51.503,56.577-68.363,56.577l0,0c-16.859,0-38.582-17.977-68.362-56.577     c-20.96-27.165-37.851-54.41-39.707-57.427l-1.774-2.881c-1.58-2.565-1.648-5.794-0.177-8.425     c1.469-2.63,4.255-4.264,7.267-4.264c0,0,42.486,0,48.73,0c0-6.507,0-69.324,0-69.324c0-4.591,3.734-8.325,8.325-8.325     l91.397-0.001c4.59,0,8.324,3.735,8.324,8.325c0,0,0,62.817,0,69.325c6.244,0,48.73,0,48.73,0c3.014,0,5.799,1.635,7.268,4.266     C240.567,110.933,240.5,114.162,238.918,116.73z"
       id="path622" />
    <linearGradient
       id="XMLID_5_"
       gradientUnits="userSpaceOnUse"
       x1="205.2803"
       y1="188.9102"
       x2="83.9377"
       y2="67.5676"
       gradientTransform="matrix(0 -1 -1 0 256 256.0029)">
      <stop
         offset="0"
         style="stop-color:#0066CC"
         id="stop624" />
      <stop
         offset="1"
         style="stop-color:#003399"
         id="stop625" />
      <a:midPointStop
         offset="0"
         style="stop-color:#0066CC"
         id="midPointStop626" />
      <a:midPointStop
         offset="0.5"
         style="stop-color:#0066CC"
         id="midPointStop627" />
      <a:midPointStop
         offset="1"
         style="stop-color:#003399"
         id="midPointStop628" />
    </linearGradient>
    <path
       style="fill:url(#XMLID_5_);"
       d="M237.842,114.73c-0.001,0.001-1.773,2.879-1.773,2.879     c-1.861,3.023-18.787,30.315-39.705,57.427c-29.781,38.601-51.503,56.577-68.364,56.577l0,0     c-16.859,0-38.582-17.977-68.362-56.577c-20.96-27.165-37.851-54.41-39.707-57.427l-1.774-2.881     c-1.58-2.565-1.648-5.794-0.177-8.425c1.469-2.63,4.255-4.264,7.267-4.264c0,0,42.486,0,48.73,0c0-6.507,0-69.324,0-69.324     c0-4.591,3.734-8.325,8.325-8.325l91.397-0.001c4.59,0,8.324,3.735,8.324,8.325c0,0,0,62.817,0,69.325c6.244,0,48.73,0,48.73,0     c3.014,0,5.799,1.635,7.268,4.266C239.491,108.933,239.424,112.162,237.842,114.73z"
       id="path629" />
    <linearGradient
       id="XMLID_6_"
       gradientUnits="userSpaceOnUse"
       x1="205.4307"
       y1="189.0156"
       x2="84.0231"
       y2="67.6081"
       gradientTransform="matrix(0 -1 -1 0 256 256.0029)">
      <stop
         offset="0"
         style="stop-color:#FFFFFF"
         id="stop631" />
      <stop
         offset="1"
         style="stop-color:#F0F0F0"
         id="stop632" />
      <a:midPointStop
         offset="0"
         style="stop-color:#FFFFFF"
         id="midPointStop633" />
      <a:midPointStop
         offset="0.5"
         style="stop-color:#FFFFFF"
         id="midPointStop634" />
      <a:midPointStop
         offset="1"
         style="stop-color:#F0F0F0"
         id="midPointStop635" />
    </linearGradient>
    <path
       style="fill:url(#XMLID_6_);"
       d="M228.979,113.245c-2.767,4.493-68.128,110.043-100.98,110.043     c-32.851,0-98.213-105.55-100.979-110.043l-1.774-2.881c0,0,53.527,0,57.055,0c0-3.598,0-77.648,0-77.648l91.397-0.001     c0,0,0,74.051,0,77.649c3.526,0,57.055,0,57.055,0L228.979,113.245z"
       id="path636" />
    <linearGradient
       id="XMLID_7_"
       gradientUnits="userSpaceOnUse"
       x1="202.6377"
       y1="188.0313"
       x2="81.2991"
       y2="66.6926"
       gradientTransform="matrix(0 -1 -1 0 256 256.0029)">
      <stop
         offset="0"
         style="stop-color:#FFFFFF"
         id="stop638" />
      <stop
         offset="1"
         style="stop-color:#DFDFDF"
         id="stop639" />
      <a:midPointStop
         offset="0"
         style="stop-color:#FFFFFF"
         id="midPointStop640" />
      <a:midPointStop
         offset="0.5"
         style="stop-color:#FFFFFF"
         id="midPointStop641" />
      <a:midPointStop
         offset="1"
         style="stop-color:#DFDFDF"
         id="midPointStop642" />
    </linearGradient>
    <path
       style="fill:url(#XMLID_7_);"
       d="M128,216.988c-20.504,0-65.099-58.932-91.403-100.325c14.567,0,52.005,0,52.005,0     s0-67.011,0-77.649c10.115,0,68.683-0.001,78.796-0.001c0,10.639,0,77.65,0,77.65s37.44,0,52.006,0     C193.104,158.057,148.512,216.988,128,216.988z"
       id="path643" />
    <linearGradient
       id="XMLID_8_"
       gradientUnits="userSpaceOnUse"
       x1="174.1934"
       y1="163.7178"
       x2="81.5957"
       y2="71.1201"
       gradientTransform="matrix(0 -1 -1 0 256 256.0029)">
      <stop
         offset="0"
         style="stop-color:#428AFF"
         id="stop645" />
      <stop
         offset="1"
         style="stop-color:#003399"
         id="stop646" />
      <a:midPointStop
         offset="0"
         style="stop-color:#428AFF"
         id="midPointStop647" />
      <a:midPointStop
         offset="0.5"
         style="stop-color:#428AFF"
         id="midPointStop648" />
      <a:midPointStop
         offset="1"
         style="stop-color:#003399"
         id="midPointStop649" />
    </linearGradient>
    <path
       style="fill:url(#XMLID_8_);"
       d="M175.003,155.737L175.003,155.737c-30.265,39.645-44.281,46.141-47.005,47.09     c-2.726-0.95-16.743-7.455-47-47.09c-5.826-7.631-11.902-16.043-18.109-25.034c11.06,0,39.753,0,39.753,0s0-69.66,0-77.648     c7.066,0,43.649,0,50.717,0c0,7.988,0,77.648,0,77.648s28.692,0,39.754,0C186.909,139.688,180.833,148.101,175.003,155.737z"
       id="path650" />
  </g>
</svg>
