<?xml version="1.0" encoding="UTF-8" standalone="no"?>
<!DOCTYPE svg PUBLIC "-//W3C//DTD SVG 20010904//EN"
"http://www.w3.org/TR/2001/REC-SVG-20010904/DTD/svg10.dtd">
<!-- Created with Sodipodi ("http://www.sodipodi.com/") -->
<svg
   width="48pt"
   height="48pt"
   viewBox="0 0 256 256"
   style="overflow:visible;enable-background:new 0 0 256 256"
   xml:space="preserve"
   xmlns="http://www.w3.org/2000/svg"
   xmlns:xap="http://ns.adobe.com/xap/1.0/"
   xmlns:xapGImg="http://ns.adobe.com/xap/1.0/g/img/"
   xmlns:rdf="http://www.w3.org/1999/02/22-rdf-syntax-ns#"
   xmlns:xml="http://www.w3.org/XML/1998/namespace"
   xmlns:xapMM="http://ns.adobe.com/xap/1.0/mm/"
   xmlns:pdf="http://ns.adobe.com/pdf/1.3/"
   xmlns:dc="http://purl.org/dc/elements/1.1/"
   xmlns:a="http://ns.adobe.com/AdobeSVGViewerExtensions/3.0/"
   xmlns:x="adobe:ns:meta/"
   xmlns:sodipodi="http://sodipodi.sourceforge.net/DTD/sodipodi-0.dtd"
   xmlns:xlink="http://www.w3.org/1999/xlink"
   id="svg696"
   sodipodi:version="0.32"
>
  <g
     id="Layer_1">
    <rect
       id="_x3C_Slice_x3E_"
       style="fill:none;"
       width="256"
       height="256" />
    <path
       style="opacity:0.2;"
       d="M21.234,145.271c0.001-0.002,1.773-2.879,1.773-2.879c1.861-3.023,18.787-30.316,39.705-57.428     c29.781-38.6,51.503-56.577,68.364-56.577l0,0c16.858,0,38.581,17.977,68.361,56.577c20.96,27.166,37.851,54.41,39.707,57.428     l1.773,2.881c1.581,2.565,1.649,5.795,0.178,8.425c-1.47,2.631-4.256,4.265-7.267,4.265c0,0-42.486,0-48.73,0     c0,6.507,0,69.324,0,69.324c0,4.59-3.733,8.324-8.324,8.324l-91.397,0.001c-4.59,0-8.325-3.735-8.325-8.325     c0,0,0-62.816,0-69.324c-6.243,0-48.729,0-48.729,0c-3.014,0-5.799-1.635-7.268-4.267     C19.584,151.068,19.652,147.84,21.234,145.271z"
       id="path700" />
    <path
       style="opacity:0.2;"
       d="M19.234,143.271c0.001-0.002,1.773-2.879,1.773-2.879c1.861-3.023,18.787-30.316,39.705-57.428     c29.781-38.6,51.503-56.577,68.364-56.577l0,0c16.858,0,38.581,17.977,68.361,56.577c20.96,27.166,37.851,54.41,39.707,57.428     l1.773,2.881c1.581,2.565,1.649,5.795,0.178,8.425c-1.47,2.631-4.256,4.265-7.267,4.265c0,0-42.486,0-48.73,0     c0,6.507,0,69.324,0,69.324c0,4.59-3.733,8.324-8.324,8.324l-91.397,0.001c-4.59,0-8.325-3.735-8.325-8.325     c0,0,0-62.816,0-69.324c-6.243,0-48.729,0-48.729,0c-3.014,0-5.799-1.635-7.268-4.267     C17.584,149.068,17.652,145.84,19.234,143.271z"
       id="path701" />
    <linearGradient
       id="XMLID_5_"
       gradientUnits="userSpaceOnUse"
       x1="83.4604"
       y1="67.0908"
       x2="204.8024"
       y2="188.4328"
       gradientTransform="matrix(0 1 1 0 -4.882813e-004 -9.765625e-004)">
      <stop
         offset="0"
         style="stop-color:#0066CC"
         id="stop703" />
      <stop
         offset="1"
         style="stop-color:#003399"
         id="stop704" />
      <a:midPointStop
         offset="0"
         style="stop-color:#0066CC"
         id="midPointStop705" />
      <a:midPointStop
         offset="0.5"
         style="stop-color:#0066CC"
         id="midPointStop706" />
      <a:midPointStop
         offset="1"
         style="stop-color:#003399"
         id="midPointStop707" />
    </linearGradient>
    <path
       style="fill:url(#XMLID_5_);"
       d="M18.158,141.271c0.001-0.002,1.773-2.879,1.773-2.879     c1.861-3.023,18.787-30.316,39.705-57.428C89.417,42.365,111.14,24.388,128,24.388l0,0c16.859,0,38.582,17.977,68.362,56.577     c20.96,27.166,37.851,54.41,39.707,57.428l1.773,2.881c1.581,2.565,1.649,5.795,0.178,8.425c-1.47,2.631-4.256,4.265-7.267,4.265     c0,0-42.486,0-48.73,0c0,6.507,0,69.324,0,69.324c0,4.59-3.733,8.324-8.324,8.324l-91.397,0.001c-4.59,0-8.325-3.735-8.325-8.325     c0,0,0-62.816,0-69.324c-6.243,0-48.729,0-48.729,0c-3.014,0-5.799-1.635-7.268-4.267     C16.508,147.068,16.576,143.84,18.158,141.271z"
       id="path708" />
    <linearGradient
       id="XMLID_6_"
       gradientUnits="userSpaceOnUse"
       x1="83.3984"
       y1="66.9844"
       x2="204.8073"
       y2="188.3932"
       gradientTransform="matrix(0 1 1 0 -4.882813e-004 -9.765625e-004)">
      <stop
         offset="0"
         style="stop-color:#FFFFFF"
         id="stop710" />
      <stop
         offset="1"
         style="stop-color:#F0F0F0"
         id="stop711" />
      <a:midPointStop
         offset="0"
         style="stop-color:#FFFFFF"
         id="midPointStop712" />
      <a:midPointStop
         offset="0.5"
         style="stop-color:#FFFFFF"
         id="midPointStop713" />
      <a:midPointStop
         offset="1"
         style="stop-color:#F0F0F0"
         id="midPointStop714" />
    </linearGradient>
    <path
       style="fill:url(#XMLID_6_);"
       d="M27.02,142.757C29.787,138.264,95.147,32.713,128,32.713     c32.851,0,98.213,105.55,100.98,110.044l1.773,2.881c0,0-53.527,0-57.055,0c0,3.599,0,77.649,0,77.649H82.301     c0,0,0-74.051,0-77.649c-3.527,0-57.055,0-57.055,0L27.02,142.757z"
       id="path715" />
    <linearGradient
       id="XMLID_7_"
       gradientUnits="userSpaceOnUse"
       x1="82.5723"
       y1="67.9663"
       x2="203.9109"
       y2="189.3049"
       gradientTransform="matrix(0 1 1 0 -4.882813e-004 -9.765625e-004)">
      <stop
         offset="0"
         style="stop-color:#FFFFFF"
         id="stop717" />
      <stop
         offset="1"
         style="stop-color:#DFDFDF"
         id="stop718" />
      <a:midPointStop
         offset="0"
         style="stop-color:#FFFFFF"
         id="midPointStop719" />
      <a:midPointStop
         offset="0.5"
         style="stop-color:#FFFFFF"
         id="midPointStop720" />
      <a:midPointStop
         offset="1"
         style="stop-color:#DFDFDF"
         id="midPointStop721" />
    </linearGradient>
    <path
       style="fill:url(#XMLID_7_);"
       d="M128,39.013c20.504,0,65.099,58.931,91.403,100.325c-14.566,0-52.005,0-52.005,0     s0,67.011,0,77.648c-10.114,0-68.682,0.001-78.796,0.001c0-10.638,0-77.649,0-77.649s-37.439,0-52.005,0     C62.895,97.944,107.487,39.013,128,39.013z"
       id="path722" />
    <linearGradient
       id="XMLID_8_"
       gradientUnits="userSpaceOnUse"
       x1="102.7588"
       y1="92.2832"
       x2="195.3563"
       y2="184.881"
       gradientTransform="matrix(0 1 1 0 -4.882813e-004 -9.765625e-004)">
      <stop
         offset="0"
         style="stop-color:#428AFF"
         id="stop724" />
      <stop
         offset="1"
         style="stop-color:#003399"
         id="stop725" />
      <a:midPointStop
         offset="0"
         style="stop-color:#428AFF"
         id="midPointStop726" />
      <a:midPointStop
         offset="0.5"
         style="stop-color:#428AFF"
         id="midPointStop727" />
      <a:midPointStop
         offset="1"
         style="stop-color:#003399"
         id="midPointStop728" />
    </linearGradient>
    <path
       style="fill:url(#XMLID_8_);"
       d="M80.997,100.264L80.997,100.264c30.265-39.645,44.281-46.141,47.005-47.09     c2.726,0.951,16.742,7.456,47,47.09c5.825,7.63,11.902,16.042,18.109,25.034c-11.061,0-39.753,0-39.753,0s0,69.661,0,77.648     c-7.066,0-43.649,0-50.717,0c0-7.987,0-77.648,0-77.648s-28.692,0-39.754,0C69.09,116.313,75.167,107.901,80.997,100.264z"
       id="path729" />
  </g>
</svg>
